<?xml version="1.0" standalone="no"?>
<!DOCTYPE svg PUBLIC "-//W3C//DTD SVG 20010904//EN"
 "http://www.w3.org/TR/2001/REC-SVG-20010904/DTD/svg10.dtd">
<svg version="1.0" xmlns="http://www.w3.org/2000/svg"
 width="888.000000pt" height="888.000000pt" viewBox="0 0 888.000000 888.000000"
 preserveAspectRatio="xMidYMid meet">
<metadata>
Created by potrace 1.11, written by Peter Selinger 2001-2013
</metadata>
<g transform="translate(0.000000,888.000000) scale(0.100000,-0.100000)"
fill="#000000" stroke="none">
<path d="M3400 8784 c-93 -45 -122 -132 -82 -244 13 -36 25 -72 27 -80 2 -8 4
-16 5 -17 2 -2 3 -6 4 -10 4 -18 38 -120 46 -138 5 -11 11 -29 12 -40 2 -11 5
-22 8 -25 3 -3 33 -93 68 -200 35 -107 69 -209 77 -225 47 -103 188 -129 269
-50 39 38 61 100 51 148 -4 18 -59 187 -122 377 -63 190 -116 350 -117 357 -1
7 -5 16 -9 19 -4 4 -7 14 -7 22 0 24 -52 88 -83 102 -16 7 -41 13 -56 15 -15
1 -32 4 -37 7 -5 2 -29 -5 -54 -18z"/>
<path d="M5398 8779 c-20 -10 -45 -31 -56 -46 -20 -29 -280 -794 -283 -835 -7
-77 27 -140 93 -174 33 -17 102 -20 138 -6 49 20 103 92 114 154 3 13 5 24 7
26 1 1 2 5 4 10 1 4 4 14 8 22 3 8 56 164 116 347 126 380 128 394 57 472 -44
49 -135 63 -198 30z"/>
<path d="M1925 7790 c-94 -21 -146 -103 -129 -205 6 -36 34 -68 292 -327 157
-158 288 -286 290 -283 3 2 17 -2 33 -10 47 -25 129 -6 175 40 21 21 42 70 44
105 6 82 12 76 -372 458 -109 108 -208 202 -220 208 -31 16 -77 22 -113 14z"/>
<path d="M6935 7787 c-34 -8 -80 -49 -322 -291 -247 -248 -283 -287 -293 -326
-24 -88 25 -181 110 -208 49 -16 119 -4 153 25 82 73 541 541 553 565 34 65 9
166 -51 211 -33 24 -102 35 -150 24z"/>
<path d="M4286 7202 c-3 -2 -25 -6 -48 -8 -37 -2 -76 -9 -228 -40 -67 -14
-266 -82 -340 -117 -25 -11 -47 -21 -50 -22 -15 -4 -69 -32 -92 -48 -16 -10
-28 -15 -28 -12 0 3 -12 -2 -27 -12 -16 -10 -40 -25 -55 -33 -16 -7 -28 -17
-28 -22 0 -4 -5 -8 -10 -8 -12 0 -86 -47 -114 -72 -11 -10 -23 -18 -27 -18 -4
0 -14 -6 -21 -13 -7 -7 -33 -28 -58 -47 -25 -19 -58 -46 -75 -60 -53 -45 -229
-224 -270 -275 -22 -27 -48 -59 -58 -70 -10 -11 -49 -67 -88 -125 -38 -58 -73
-109 -77 -115 -4 -5 -16 -26 -25 -45 -10 -19 -22 -42 -27 -50 -28 -44 -136
-295 -145 -339 -2 -9 -10 -35 -19 -58 -8 -24 -13 -43 -11 -43 3 0 0 -12 -6
-27 -19 -50 -44 -185 -56 -298 -13 -127 -6 -467 12 -556 3 -13 8 -40 10 -59 3
-19 8 -51 12 -70 4 -19 8 -42 9 -50 10 -81 98 -362 155 -495 7 -16 13 -32 14
-35 5 -21 121 -254 174 -350 51 -91 178 -303 232 -385 21 -33 42 -66 46 -74 3
-8 33 -56 65 -107 32 -51 58 -97 58 -103 0 -5 4 -11 8 -13 19 -7 186 -322 260
-488 51 -115 129 -367 147 -477 5 -26 9 -50 10 -53 11 -36 25 -178 31 -315 6
-140 23 -186 81 -225 38 -25 39 -25 286 -25 136 0 247 -3 247 -7 0 -5 -7 -8
-15 -8 -8 0 -41 -9 -72 -20 -32 -10 -145 -49 -250 -84 -106 -36 -204 -76 -218
-88 -105 -91 -48 -274 91 -294 32 -4 98 14 359 101 176 58 327 108 335 112 8
3 20 7 25 8 6 2 175 58 375 125 201 67 372 123 380 126 8 2 41 13 74 24 120
43 148 84 153 230 5 133 12 213 29 330 9 60 53 242 74 305 11 33 20 63 20 67
1 4 12 32 25 63 14 30 25 58 26 63 5 32 137 305 169 352 10 14 18 28 19 33 0
4 7 17 14 30 8 12 63 102 123 201 60 98 119 195 132 215 12 20 31 52 42 71 12
19 34 55 50 80 36 57 97 161 166 288 14 26 30 52 34 57 5 6 9 13 9 18 0 4 14
33 30 65 53 105 148 335 155 377 1 6 7 24 13 40 10 26 17 47 39 130 3 12 34
152 40 180 2 11 6 33 10 48 7 32 9 48 21 157 10 95 10 469 -1 535 -16 102 -19
123 -37 200 -6 28 -13 57 -16 65 -3 8 -8 24 -10 35 -5 25 -41 130 -59 172 -8
17 -14 34 -14 38 0 16 -113 238 -160 316 -77 124 -138 209 -243 332 -43 52
-202 208 -253 249 -23 18 -57 45 -75 61 -56 45 -207 147 -218 147 -6 0 -11 3
-11 8 0 4 -10 12 -23 18 -12 7 -65 34 -117 61 -78 40 -163 79 -190 88 -3 1
-12 4 -20 8 -140 54 -325 102 -485 123 -53 8 -413 13 -419 6z m339 -426 c74
-9 102 -13 138 -20 15 -3 38 -8 52 -10 25 -5 34 -7 110 -28 405 -110 738 -321
958 -608 23 -30 45 -56 50 -58 4 -2 7 -8 7 -14 0 -5 14 -29 30 -54 39 -56 123
-224 156 -310 33 -89 84 -269 89 -319 3 -22 2 -33 -1 -25 -20 55 -91 207 -101
218 -6 6 -15 22 -19 35 -4 12 -14 32 -23 43 -9 12 -22 30 -28 40 -7 11 -25 38
-40 61 -99 149 -314 378 -462 493 -18 14 -44 35 -59 48 -36 31 -260 179 -342
227 -76 44 -343 174 -390 190 -3 1 -16 6 -30 12 -14 6 -67 26 -117 44 -93 34
-118 51 -65 45 15 -2 54 -7 87 -10z m-344 -2323 c27 -16 43 -43 52 -88 3 -16
7 -13 20 16 9 20 31 49 49 64 28 23 39 27 80 23 66 -7 103 -49 101 -115 -1
-23 7 -14 23 27 36 90 128 119 192 61 28 -26 39 -54 33 -85 -1 -5 5 -4 13 4 9
7 16 19 16 28 0 8 16 30 36 48 28 27 44 34 75 34 84 0 117 -47 115 -166 l-1
-81 205 0 c221 0 255 -6 275 -51 5 -12 13 -22 17 -22 17 0 7 -78 -12 -103 -11
-14 -20 -27 -20 -30 0 -3 -18 -34 -39 -69 -68 -112 -182 -353 -193 -408 -2 -8
-5 -17 -8 -20 -5 -5 -63 -175 -66 -195 -1 -5 -9 -36 -19 -69 -9 -32 -19 -66
-20 -75 -2 -9 -4 -16 -5 -16 -1 0 -3 -7 -5 -15 -3 -16 -27 -129 -31 -145 -1
-5 -5 -23 -8 -40 -3 -16 -8 -39 -10 -50 -4 -19 -15 -95 -21 -145 -2 -13 -6
-45 -10 -70 -11 -86 -15 -135 -20 -235 -7 -135 -12 -158 -38 -188 -20 -22 -62
-44 -78 -39 -4 0 -19 3 -35 6 -16 3 -41 19 -56 37 -26 31 -27 32 -22 158 5
119 10 196 13 196 1 0 4 23 6 50 4 63 17 156 35 250 5 28 11 64 14 80 2 17 10
53 16 80 6 28 12 57 14 65 19 96 120 425 135 444 5 6 9 13 9 16 0 17 16 67 25
79 6 7 12 20 13 29 2 8 30 70 63 137 34 67 61 124 61 126 0 3 -72 4 -160 4
-89 0 -166 3 -173 7 -8 5 -29 -27 -68 -104 -61 -124 -87 -150 -148 -151 -60
-1 -105 45 -111 113 0 8 -12 -6 -26 -32 -30 -59 -65 -83 -115 -81 -60 3 -109
49 -109 104 0 11 -5 17 -10 14 -6 -4 -8 -10 -5 -15 3 -4 -2 -13 -10 -20 -8 -7
-15 -17 -15 -22 0 -33 -75 -70 -123 -61 -38 7 -85 59 -89 96 l-3 32 -23 -47
c-26 -53 -55 -76 -106 -81 -56 -6 -115 43 -117 97 -1 17 -3 54 -4 81 -1 28 -3
55 -4 60 0 6 -39 10 -91 10 -50 1 -89 -2 -87 -5 1 -3 11 -23 22 -45 11 -22 25
-43 30 -47 6 -4 7 -8 3 -8 -4 0 8 -30 26 -67 29 -58 43 -90 51 -113 1 -3 5
-12 8 -20 17 -40 75 -199 82 -225 11 -38 8 -28 34 -115 13 -41 24 -79 26 -85
3 -16 15 -66 26 -110 5 -22 12 -50 14 -63 2 -13 6 -31 9 -40 3 -9 8 -37 11
-62 4 -24 8 -47 10 -50 1 -3 6 -32 10 -65 3 -32 8 -62 10 -66 3 -3 7 -35 10
-70 2 -35 7 -75 9 -89 5 -24 15 -174 19 -270 3 -59 -25 -114 -66 -131 -38 -16
-51 -16 -95 1 -47 18 -63 57 -68 164 -2 50 -6 111 -9 136 -8 83 -15 145 -20
175 -3 17 -7 47 -10 68 -13 96 -21 142 -35 207 -5 25 -12 56 -14 70 -15 81
-98 369 -126 435 -4 11 -23 58 -41 105 -18 47 -48 114 -66 150 -18 35 -33 70
-33 76 0 7 -3 14 -7 16 -5 2 -19 24 -33 50 -14 25 -42 74 -64 108 -58 93 -49
170 24 200 30 12 558 19 577 7 17 -10 29 7 83 114 33 67 62 112 79 122 34 21
86 21 122 0z"/>
<path d="M4845 1064 c-186 -63 -347 -114 -357 -114 -10 0 -18 -4 -18 -10 0 -5
-7 -10 -15 -10 -13 0 -191 -56 -245 -77 -8 -4 -17 -7 -20 -8 -14 -3 -297 -97
-310 -102 -8 -3 -17 -7 -20 -8 -3 0 -45 -14 -95 -30 -49 -15 -92 -27 -94 -26
-2 2 -7 -1 -10 -6 -3 -4 -19 -15 -36 -25 -66 -36 -94 -140 -58 -215 22 -47 94
-93 145 -93 28 0 426 123 538 167 8 3 20 7 25 9 6 1 64 21 130 43 66 23 127
43 135 45 8 2 69 23 135 45 66 23 127 44 135 46 82 21 499 168 519 183 39 29
64 78 63 125 -1 61 -5 75 -36 114 -33 41 -80 63 -133 62 -21 0 -191 -52 -378
-115z"/>
<path d="M4849 564 c-41 -14 -81 -27 -89 -31 -8 -3 -19 -7 -25 -8 -39 -9 -832
-278 -856 -290 -61 -32 -93 -126 -69 -200 l12 -35 207 0 207 0 164 56 c91 30
172 57 180 59 8 2 96 31 195 65 99 34 188 63 198 65 9 2 35 14 56 26 109 61
110 230 1 289 -54 30 -96 31 -181 4z"/>
</g>
</svg>
