<?xml version="1.0" encoding="UTF-8"?>
<svg xmlns="http://www.w3.org/2000/svg" xmlns:xlink="http://www.w3.org/1999/xlink" width="20pt" height="20pt" viewBox="0 0 20 20" version="1.1">
<g id="surface1">
<path style=" stroke:none;fill-rule:nonzero;fill:rgb(94.901961%,42.352941%,42.745098%);fill-opacity:1;" d="M 14.375 1.5625 C 12.238281 1.5625 10.9375 3.125 10.9375 3.125 C 10.078125 4.378906 9.78125 4.214844 9.0625 3.125 C 9.0625 3.125 7.5 1.5625 5.625 1.5625 C 2.320312 1.5625 0.3125 4.761719 0.3125 7.289062 C 0.3125 12.601562 6.589844 16.769531 10 18.433594 C 13.40625 16.773438 19.6875 12.832031 19.6875 7.289062 C 19.6875 4.761719 17.402344 1.5625 14.375 1.5625 Z M 14.375 1.5625 "/>
<path style=" stroke:none;fill-rule:nonzero;fill:rgb(16.862745%,19.215686%,22.352941%);fill-opacity:1;" d="M 14.375 1.25 C 12.605469 1.25 11.03125 2.332031 10 3.75 C 8.96875 2.332031 7.394531 1.25 5.625 1.25 C 2.519531 1.25 0 4.046875 0 7.5 C 0 14.648438 10 18.75 10 18.75 C 10 18.75 20 14.648438 20 7.5 C 20 4.046875 17.480469 1.25 14.375 1.25 Z M 10 18.125 C 6.699219 16.488281 0.625 12.746094 0.625 7.515625 C 0.625 4.820312 2.425781 1.878906 5.625 1.878906 C 7.980469 1.878906 9.289062 3.855469 9.59375 4.316406 C 9.777344 4.664062 10.019531 4.785156 10.328125 4.421875 C 10.742188 3.890625 12.183594 1.875 14.375 1.875 L 14.375 1.878906 C 17.304688 1.878906 19.375 4.664062 19.375 7.515625 C 19.375 12.972656 13.296875 16.492188 10 18.125 Z M 14.375 2.5 C 14.203125 2.5 14.0625 2.640625 14.0625 2.8125 C 14.0625 2.984375 14.203125 3.125 14.375 3.125 C 16.445312 3.125 18.125 5.082031 18.125 7.5 C 18.125 7.671875 18.265625 7.8125 18.4375 7.8125 C 18.609375 7.8125 18.75 7.671875 18.75 7.5 C 18.75 4.738281 16.792969 2.5 14.375 2.5 Z M 9.152344 4.765625 C 8.359375 3.480469 7.082031 2.5 5.625 2.5 C 5.453125 2.5 5.3125 2.640625 5.3125 2.8125 C 5.3125 2.984375 5.453125 3.125 5.625 3.125 C 6.808594 3.125 7.929688 3.96875 8.617188 5.085938 C 8.625 5.105469 8.636719 5.113281 8.648438 5.113281 C 8.703125 5.1875 8.789062 5.234375 8.886719 5.234375 C 9.058594 5.234375 9.199219 5.09375 9.199219 4.921875 C 9.199219 4.867188 9.179688 4.816406 9.15625 4.769531 C 9.152344 4.769531 9.15625 4.765625 9.152344 4.765625 Z M 9.152344 4.765625 "/>
</g>
</svg>
