<svg width="82.2000000029803" height="110.92491207251217" xmlns="http://www.w3.org/2000/svg">

 <g>
  <title>background</title>
  <rect fill="none" id="canvas_background" height="402" width="582" y="-1" x="-1"/>
 </g>
 <g>
  <title>Layer 1</title>
  <g fill="#222222" id="SvgjsG1921">
   <path id="svg_1" fill=" rgb(34, 34, 34)" d="m82.059999,55.597465c0.02,-0.01 0.04,-0.01 0.06,-0.03c0.05,-0.03 0.08,-0.1 0.08,-0.16c0,-0.02 -0.02,-0.04 -0.04,-0.04c-0.03,0 -0.06,0.02 -0.06,0.02c-0.01,0 -0.01,-0.06 -0.05,-0.06c-0.03,0 -0.03,0.13 -0.04,0.21c-0.01,0 -0.01,0.01 -0.01,0.01c0,0.03 0.02,0.05 0.06,0.05zm0,-0.07c0.02,-0.04 0.06,-0.11 0.08,-0.11c0.01,0 0.02,0.02 0.02,0.02c0,0.02 -0.04,0.07 -0.06,0.11c0,0 -0.01,0 -0.02,0c-0.01,0 -0.01,0 -0.02,-0.02z"/>
  </g>
  <g fill="#f6b12e" transform="translate(-24.07400131225586,-2.107797145843506) scale(1.1533007621765137) " id="SvgjsG1922">
   <g id="svg_2" fill="#f6b12e">
    <path id="svg_3" fill=" rgb(246, 177, 46)" d="m35.093612,22.704077c0.472,0 0.942,-0.18 1.303,-0.54c0.72,-0.719 0.72,-1.887 0,-2.605l-5.441,-5.441c-0.72,-0.72 -1.886,-0.72 -2.605,0c-0.72,0.719 -0.72,1.887 0,2.605l5.441,5.441c0.359,0.36 0.831,0.54 1.302,0.54z"/>
    <path id="svg_4" fill=" rgb(246, 177, 46)" d="m85.364612,14.117077c-0.72,-0.72 -1.886,-0.72 -2.605,0l-5.441,5.441c-0.72,0.719 -0.72,1.887 0,2.605c0.36,0.36 0.832,0.54 1.303,0.54c0.472,0 0.943,-0.18 1.303,-0.54l5.441,-5.441c0.719,-0.718 0.719,-1.886 -0.001,-2.605z"/>
    <path id="svg_5" fill=" rgb(246, 177, 46)" d="m46.946612,13.282077c0.258,0.772 0.977,1.262 1.749,1.262c0.192,0 0.389,-0.031 0.582,-0.096c0.965,-0.321 1.487,-1.364 1.166,-2.33l-2.719,-8.161c-0.321,-0.965 -1.361,-1.487 -2.33,-1.166c-0.966,0.322 -1.488,1.365 -1.166,2.331l2.718,8.16z"/>
    <path id="svg_6" fill=" rgb(246, 177, 46)" d="m64.436612,14.448077c0.192,0.064 0.39,0.096 0.583,0.096c0.771,0 1.491,-0.488 1.747,-1.261l2.722,-8.161c0.321,-0.966 -0.199,-2.009 -1.165,-2.331c-0.966,-0.325 -2.011,0.199 -2.331,1.165l-2.721,8.161c-0.321,0.966 0.199,2.01 1.165,2.331z"/>
    <path id="svg_7" fill=" rgb(246, 177, 46)" d="m64.436612,85.305077l-16.324,5.438c-0.966,0.321 -1.487,1.365 -1.165,2.332c0.257,0.771 0.976,1.26 1.748,1.26c0.192,0 0.389,-0.031 0.582,-0.096l16.325,-5.439c0.964,-0.321 1.486,-1.365 1.164,-2.332c-0.32,-0.964 -1.366,-1.485 -2.33,-1.163z"/>
    <path id="svg_8" fill=" rgb(246, 177, 46)" d="m61.384612,91.762077l-10.566,3.521c-0.965,0.322 -1.487,1.365 -1.165,2.332c0.258,0.771 0.976,1.26 1.748,1.26c0.193,0 0.389,-0.031 0.582,-0.096l10.567,-3.522c0.965,-0.321 1.486,-1.365 1.164,-2.329c-0.32,-0.965 -1.366,-1.488 -2.33,-1.166z"/>
    <path id="svg_9" fill=" rgb(246, 177, 46)" d="m56.857612,19.921077c-12.355,0 -23.606,11.251 -23.606,23.605c0,8.688 3.6,14.449 7.081,20.021c3.353,5.364 6.521,10.432 6.521,18.066c0,1.017 0.824,1.842 1.843,1.842l4.968,0l-5.551,1.851c-0.966,0.321 -1.487,1.364 -1.165,2.329c0.257,0.772 0.976,1.26 1.748,1.26c0.192,0 0.389,-0.029 0.582,-0.094l16.325,-5.441c0.021,-0.007 0.039,-0.02 0.061,-0.026c0.062,-0.024 0.123,-0.053 0.182,-0.081c0.052,-0.027 0.102,-0.054 0.149,-0.082c0.051,-0.031 0.098,-0.067 0.146,-0.104c0.048,-0.038 0.095,-0.074 0.14,-0.115c0.042,-0.04 0.08,-0.084 0.118,-0.127c0.038,-0.045 0.077,-0.089 0.111,-0.137c0.036,-0.05 0.067,-0.103 0.098,-0.156c0.028,-0.048 0.057,-0.096 0.08,-0.146c0.026,-0.056 0.047,-0.115 0.067,-0.176c0.018,-0.053 0.037,-0.107 0.051,-0.163c0.014,-0.058 0.022,-0.115 0.03,-0.175c0.01,-0.062 0.018,-0.125 0.02,-0.189c0.001,-0.024 0.008,-0.046 0.008,-0.069c0,-7.635 3.167,-12.702 6.521,-18.066c3.48,-5.571 7.08,-11.332 7.08,-20.021c-0.003,-12.355 -11.254,-23.606 -23.608,-23.606zm11.904,34.266c-5.175,7.761 -5.234,18.256 -5.234,18.361c0,0.679 -0.55,1.229 -1.229,1.229c-0.68,0 -1.229,-0.55 -1.229,-1.229c0,-0.425 0.055,-9.784 4.488,-17.814l-3.26,0c-0.193,0 -0.377,-0.043 -0.539,-0.125l-1.083,2.167c-0.255,0.511 -0.834,0.772 -1.381,0.647c-0.555,-0.132 -0.946,-0.626 -0.946,-1.197l0,-0.237l-0.394,0.787c-0.256,0.511 -0.823,0.774 -1.382,0.647c-0.554,-0.132 -0.945,-0.626 -0.945,-1.197l0,-0.237l-0.394,0.787c-0.255,0.511 -0.823,0.774 -1.382,0.647c-0.554,-0.132 -0.945,-0.626 -0.945,-1.197l0,-0.235l-0.392,0.785c-0.254,0.506 -0.822,0.774 -1.381,0.645c-0.555,-0.129 -0.946,-0.626 -0.946,-1.194l0,-1.492l-2.031,0c4.433,8.03 4.488,17.39 4.488,17.814c0,0.679 -0.55,1.229 -1.228,1.229l-0.001,0c-0.678,0 -1.228,-0.55 -1.229,-1.227c0,-0.105 -0.072,-10.619 -5.235,-18.363c-0.251,-0.377 -0.274,-0.861 -0.061,-1.26c0.214,-0.4 0.63,-0.65 1.083,-0.65l5.441,0c0.192,0 0.376,0.046 0.537,0.125l1.082,-2.165c0.255,-0.51 0.824,-0.778 1.381,-0.647c0.555,0.131 0.946,0.626 0.946,1.196l0,0.237l0.394,-0.787c0.255,-0.51 0.824,-0.776 1.381,-0.646c0.555,0.131 0.946,0.626 0.946,1.196l0,0.237l0.394,-0.787c0.254,-0.51 0.828,-0.778 1.381,-0.646c0.555,0.131 0.947,0.626 0.947,1.196l0,0.237l0.393,-0.787c0.255,-0.51 0.829,-0.778 1.381,-0.646c0.555,0.131 0.947,0.626 0.947,1.196l0,1.491l4.213,0c0.453,0 0.869,0.25 1.083,0.65c0.217,0.398 0.192,0.882 -0.059,1.259zm-11.902,-29.703c0,0 16.322,0 19.04,16.321c-0.038,0.007 -2.718,-10.88 -19.04,-16.321z"/>
   </g>
  </g>
 </g>
</svg>