<?xml version="1.0" encoding="UTF-8"?>
<svg xmlns="http://www.w3.org/2000/svg" xmlns:xlink="http://www.w3.org/1999/xlink" width="20pt" height="20pt" viewBox="0 0 20 20" version="1.1">
<g id="surface1">
<path style=" stroke:none;fill-rule:nonzero;fill:rgb(90.196078%,29.803922%,40%);fill-opacity:1;" d="M 5.527344 2.015625 C 5.015625 2.054688 4.519531 2.164062 4.050781 2.347656 C 2.183594 3.078125 0.867188 4.992188 0.867188 7.792969 C 0.867188 10.597656 2.179688 12.457031 3.921875 13.886719 C 5.664062 15.316406 7.824219 16.382812 9.695312 17.785156 L 9.984375 18 L 10.273438 17.785156 C 12.160156 16.382812 14.328125 15.316406 16.074219 13.886719 C 17.820312 12.457031 19.132812 10.597656 19.132812 7.792969 C 19.132812 4.992188 17.816406 3.078125 15.945312 2.347656 C 14.160156 1.652344 11.957031 2.039062 9.988281 3.398438 C 8.542969 2.394531 6.972656 1.90625 5.527344 2.015625 Z M 5.605469 2.980469 C 6.878906 2.886719 8.335938 3.316406 9.695312 4.34375 L 9.984375 4.5625 L 10.277344 4.34375 C 12.101562 2.976562 14.097656 2.664062 15.589844 3.246094 C 17.085938 3.832031 18.167969 5.285156 18.167969 7.792969 C 18.167969 10.304688 17.082031 11.8125 15.460938 13.136719 C 13.921875 14.398438 11.882812 15.457031 9.988281 16.816406 C 8.105469 15.457031 6.070312 14.398438 4.535156 13.140625 C 2.917969 11.8125 1.832031 10.304688 1.832031 7.792969 C 1.832031 5.285156 2.914062 3.832031 4.40625 3.246094 C 4.777344 3.101562 5.183594 3.011719 5.605469 2.980469 Z M 5.605469 2.980469 "/>
</g>
</svg>
