<?xml version="1.0" encoding="UTF-8"?>
<svg xmlns="http://www.w3.org/2000/svg" xmlns:xlink="http://www.w3.org/1999/xlink" width="20pt" height="20pt" viewBox="0 0 20 20" version="1.1">
<defs>
<linearGradient id="linear0" gradientUnits="userSpaceOnUse" x1="127.9995" y1="-1.8848" x2="127.9995" y2="254.9856" gradientTransform="matrix(0.078125,0,0,0.078125,0,0)">
<stop offset="0" style="stop-color:rgb(97.647059%,66.666667%,17.647059%);stop-opacity:1;"/>
<stop offset="1" style="stop-color:rgb(87.843137%,56.862745%,8.235294%);stop-opacity:1;"/>
</linearGradient>
<filter id="alpha" filterUnits="objectBoundingBox" x="0%" y="0%" width="100%" height="100%">
  <feColorMatrix type="matrix" in="SourceGraphic" values="0 0 0 0 1 0 0 0 0 1 0 0 0 0 1 0 0 0 1 0"/>
</filter>
<mask id="mask0">
  <g filter="url(#alpha)">
<rect x="0" y="0" width="20" height="20" style="fill:rgb(0%,0%,0%);fill-opacity:0.2;stroke:none;"/>
  </g>
</mask>
<clipPath id="clip1">
  <rect width="20" height="20"/>
</clipPath>
<g id="surface6" clip-path="url(#clip1)">
<path style=" stroke:none;fill-rule:nonzero;fill:rgb(17.254902%,17.254902%,17.254902%);fill-opacity:1;" d="M 10 19.671875 C 4.53125 19.671875 0.0898438 15.28125 0.00390625 9.835938 C 0 9.890625 0 9.945312 0 10 C 0 15.523438 4.476562 20 10 20 C 15.523438 20 20 15.523438 20 10 C 20 9.945312 20 9.890625 19.996094 9.835938 C 19.910156 15.28125 15.46875 19.671875 10 19.671875 Z M 10 19.671875 "/>
</g>
<mask id="mask1">
  <g filter="url(#alpha)">
<rect x="0" y="0" width="20" height="20" style="fill:rgb(0%,0%,0%);fill-opacity:0.501961;stroke:none;"/>
  </g>
</mask>
<mask id="mask2">
  <g filter="url(#alpha)">
<rect x="0" y="0" width="20" height="20" style="fill:rgb(0%,0%,0%);fill-opacity:0.101961;stroke:none;"/>
  </g>
</mask>
<clipPath id="clip3">
  <rect width="20" height="20"/>
</clipPath>
<g id="surface10" clip-path="url(#clip3)">
<path style=" stroke:none;fill-rule:nonzero;fill:rgb(17.254902%,17.254902%,17.254902%);fill-opacity:1;" d="M 9.214844 11.441406 L 8.96875 7.757812 C 8.921875 7.039062 8.898438 6.523438 8.898438 6.210938 C 8.898438 5.785156 9.011719 5.453125 9.234375 5.214844 C 9.457031 4.976562 9.75 4.855469 10.117188 4.855469 C 10.558594 4.855469 10.851562 5.007812 11 5.3125 C 11.148438 5.621094 11.222656 6.058594 11.222656 6.632812 C 11.222656 6.972656 11.207031 7.316406 11.171875 7.664062 L 10.839844 11.457031 C 10.804688 11.910156 10.726562 12.257812 10.609375 12.496094 C 10.492188 12.738281 10.296875 12.859375 10.023438 12.859375 C 9.746094 12.859375 9.554688 12.742188 9.445312 12.507812 C 9.339844 12.273438 9.261719 11.921875 9.214844 11.441406 Z M 10.070312 16.507812 C 9.757812 16.507812 9.484375 16.40625 9.25 16.203125 C 9.015625 16 8.898438 15.714844 8.898438 15.351562 C 8.898438 15.035156 9.011719 14.761719 9.234375 14.539062 C 9.457031 14.316406 9.730469 14.207031 10.054688 14.207031 C 10.378906 14.207031 10.652344 14.316406 10.882812 14.539062 C 11.109375 14.761719 11.222656 15.035156 11.222656 15.351562 C 11.222656 15.710938 11.109375 15.992188 10.878906 16.199219 C 10.648438 16.402344 10.378906 16.507812 10.070312 16.507812 Z M 10.070312 16.507812 "/>
</g>
<clipPath id="clip2">
  <rect width="20" height="20"/>
</clipPath>
<g id="surface12" clip-path="url(#clip2)">
<use xlink:href="#surface10" mask="url(#mask2)"/>
</g>
<mask id="mask3">
  <g filter="url(#alpha)">
<rect x="0" y="0" width="20" height="20" style="fill:rgb(0%,0%,0%);fill-opacity:0.2;stroke:none;"/>
  </g>
</mask>
<clipPath id="clip4">
  <rect width="20" height="20"/>
</clipPath>
<g id="surface15" clip-path="url(#clip4)">
<path style=" stroke:none;fill-rule:nonzero;fill:rgb(17.254902%,17.254902%,17.254902%);fill-opacity:1;" d="M 10.878906 15.761719 C 10.648438 15.964844 10.378906 16.066406 10.070312 16.066406 C 9.757812 16.066406 9.484375 15.964844 9.25 15.765625 C 9.042969 15.582031 8.925781 15.335938 8.90625 15.027344 C 8.902344 15.0625 8.898438 15.097656 8.898438 15.132812 C 8.898438 15.496094 9.015625 15.78125 9.25 15.984375 C 9.484375 16.1875 9.757812 16.289062 10.070312 16.289062 C 10.378906 16.289062 10.648438 16.183594 10.878906 15.980469 C 11.109375 15.773438 11.222656 15.492188 11.222656 15.132812 C 11.222656 15.097656 11.222656 15.0625 11.21875 15.027344 C 11.195312 15.332031 11.082031 15.578125 10.878906 15.761719 Z M 9.214844 11.222656 C 9.261719 11.699219 9.339844 12.054688 9.445312 12.289062 C 9.554688 12.523438 9.746094 12.640625 10.023438 12.640625 C 10.296875 12.640625 10.492188 12.519531 10.609375 12.277344 C 10.726562 12.039062 10.804688 11.691406 10.839844 11.238281 L 11.171875 7.445312 C 11.207031 7.097656 11.222656 6.753906 11.222656 6.414062 C 11.222656 6.382812 11.222656 6.351562 11.222656 6.316406 C 11.21875 6.617188 11.203125 6.917969 11.171875 7.226562 L 10.839844 11.019531 C 10.804688 11.472656 10.726562 11.816406 10.609375 12.058594 C 10.492188 12.300781 10.296875 12.421875 10.023438 12.421875 C 9.746094 12.421875 9.554688 12.304688 9.445312 12.070312 C 9.339844 11.835938 9.261719 11.480469 9.214844 11.003906 L 8.96875 7.320312 C 8.929688 6.714844 8.90625 6.253906 8.902344 5.933594 C 8.902344 5.953125 8.898438 5.972656 8.898438 5.992188 C 8.898438 6.304688 8.921875 6.820312 8.96875 7.539062 Z M 9.214844 11.222656 "/>
</g>
</defs>
<g id="surface1">
<path style=" stroke:none;fill-rule:nonzero;fill:url(#linear0);" d="M 20 10 C 20 15.523438 15.523438 20 10 20 C 4.476562 20 0 15.523438 0 10 C 0 4.476562 4.476562 0 10 0 C 15.523438 0 20 4.476562 20 10 Z M 20 10 "/>
<use xlink:href="#surface6" mask="url(#mask0)"/>
<use xlink:href="#surface12" mask="url(#mask1)"/>
<path style=" stroke:none;fill-rule:nonzero;fill:rgb(100%,100%,100%);fill-opacity:1;" d="M 9.214844 11.222656 L 8.96875 7.539062 C 8.921875 6.820312 8.898438 6.304688 8.898438 5.992188 C 8.898438 5.566406 9.011719 5.234375 9.234375 4.996094 C 9.457031 4.757812 9.75 4.636719 10.117188 4.636719 C 10.558594 4.636719 10.851562 4.789062 11 5.09375 C 11.148438 5.398438 11.222656 5.839844 11.222656 6.414062 C 11.222656 6.753906 11.207031 7.097656 11.171875 7.445312 L 10.839844 11.238281 C 10.804688 11.691406 10.726562 12.039062 10.609375 12.277344 C 10.492188 12.519531 10.296875 12.640625 10.023438 12.640625 C 9.746094 12.640625 9.554688 12.523438 9.445312 12.289062 C 9.339844 12.054688 9.261719 11.699219 9.214844 11.222656 Z M 10.070312 16.289062 C 9.757812 16.289062 9.484375 16.1875 9.25 15.984375 C 9.015625 15.78125 8.898438 15.496094 8.898438 15.132812 C 8.898438 14.816406 9.011719 14.542969 9.234375 14.320312 C 9.457031 14.097656 9.730469 13.984375 10.054688 13.984375 C 10.378906 13.984375 10.652344 14.097656 10.882812 14.320312 C 11.109375 14.542969 11.222656 14.816406 11.222656 15.132812 C 11.222656 15.492188 11.109375 15.773438 10.878906 15.980469 C 10.648438 16.183594 10.378906 16.289062 10.070312 16.289062 Z M 10.070312 16.289062 "/>
<use xlink:href="#surface15" mask="url(#mask3)"/>
</g>
</svg>
